<svg enable-background="new 0 0 300 300" viewBox="0 0 300 300" xmlns="http://www.w3.org/2000/svg" xmlns:xlink="http://www.w3.org/1999/xlink"><radialGradient id="a" cx="-626.3172" cy="-1039.7684" gradientTransform="matrix(1.7603 0 0 1 42.7323 0)" gradientUnits="userSpaceOnUse" r="49.5749"><stop offset="0" stop-color="#75f8d2"/><stop offset=".4214" stop-color="#4eede8"/><stop offset=".7852" stop-color="#34e6f6"/><stop offset="1" stop-color="#2ae3fc"/></radialGradient><linearGradient id="b"><stop offset="0" stop-color="#6b3bf3"/><stop offset=".3176" stop-color="#0063e9"/><stop offset="1" stop-color="#16cdc5"/></linearGradient><linearGradient id="c" gradientUnits="userSpaceOnUse" x1="-1252.4623" x2="-1216.1259" xlink:href="#b" y1="-1038.5154" y2="-1038.5154"/><linearGradient id="d" gradientUnits="userSpaceOnUse" x1="-722.7996" x2="-427.7996" xlink:href="#b" y1="-665.9721" y2="-665.9721"/><path d="m-1010.5-50h749.4v500h-749.4z" fill="#f6f6f6"/><path d="m-962 278.7 17.3-18 16.9 18" fill="none" stroke="#1d1d1b" stroke-miterlimit="10" stroke-width="2"/><path d="m-957.1 283.3v13.9h25.2v-13.9" fill="none" stroke="#1d1d1b" stroke-miterlimit="10" stroke-width="2"/><path d="m-986.7 259.3v39" fill="none" stroke="#1d1d1b" stroke-miterlimit="10" stroke-width="2"/><path d="m-967.3 278.8h-38.9" fill="none" stroke="#1d1d1b" stroke-miterlimit="10" stroke-width="2"/><circle cx="-823.2" cy="292" fill="#1d1d1b" r="5.6" stroke="#1d1d1b" stroke-miterlimit="10" stroke-width="2"/><circle cx="-823.2" cy="266.8" fill="#1d1d1b" r="5.6" stroke="#1d1d1b" stroke-miterlimit="10" stroke-width="2"/><path d="m-840.6 279.3c0 3.1-2.5 5.6-5.6 5.6s-5.6-2.5-5.6-5.6 2.5-5.6 5.6-5.6 5.6 2.5 5.6 5.6z" fill="#1d1d1b" stroke="#1d1d1b" stroke-miterlimit="10" stroke-width="2"/><path d="m-841.5 276.4 12.9-7" fill="none" stroke="#1d1d1b" stroke-miterlimit="10" stroke-width="2"/><path d="m-840.6 282.8 12.5 6.5" fill="none" stroke="#1d1d1b" stroke-miterlimit="10" stroke-width="2"/><path d="m-781.4 266.3-2.6 3h7" fill="#1d1d1b"/><path d="m-777.5 269.3h1.6v-9l-5.7 6.3" fill="#1d1d1b"/><path d="m-780.4 265.6c-2.2-1.3-4.6-2.1-7.3-2.3-8-.5-14.9 4.8-16.9 12.2 2.3-7 9.1-11.9 16.8-11.4 2.5.2 4.8.9 6.9 2" fill="#1d1d1b"/><path d="m-780.9 266.4c-2-1.3-4.3-2-6.7-2.3-2.4-.2-4.8.1-7.1 1-2.2.9-4.3 2.3-5.9 4.1-1.7 1.8-2.8 4-3.5 6.4l-.9-.3c.8-2.3 2.1-4.5 3.9-6.3.8-.9 1.8-1.7 2.8-2.4s2.1-1.3 3.3-1.7c2.3-.9 4.8-1.2 7.2-1s4.8.9 6.9 2.1c-2.1-1.1-4.5-1.8-6.9-1.9s-4.8.3-7 1.3c-1.1.4-2.1 1.1-3.1 1.7-.9.7-1.9 1.5-2.7 2.4-1.6 1.7-2.8 3.9-3.5 6.1l-.9-.3c.6-2.5 1.8-4.9 3.5-6.9s3.9-3.6 6.3-4.7c2.4-1 5.1-1.5 7.8-1.4s5.3.9 7.6 2.3z" fill="#1d1d1b"/><path d="m-794.9 293.5 2.6-2.9h-7" fill="#1d1d1b"/><path d="m-798.8 290.6h-1.6v9l5.7-6.4" fill="#1d1d1b"/><path d="m-795.9 294.2c2.2 1.3 4.6 2.1 7.3 2.3 8 .5 14.9-4.8 16.9-12.2-2.3 7-9.1 11.9-16.8 11.4-2.5-.2-4.8-.9-6.9-2" fill="#1d1d1b"/><path d="m-795.4 293.4c2 1.3 4.3 2 6.7 2.3 2.4.2 4.8-.1 7.1-1 2.2-.9 4.3-2.3 5.9-4.1 1.7-1.8 2.8-4 3.5-6.4l.9.3c-.8 2.3-2.1 4.5-3.9 6.3-.8.9-1.8 1.7-2.8 2.4s-2.1 1.3-3.3 1.7c-2.3.9-4.8 1.2-7.2 1s-4.8-.9-6.9-2.1c2.1 1.1 4.5 1.8 6.9 1.9s4.8-.3 7-1.3c1.1-.4 2.1-1.1 3.1-1.7.9-.7 1.9-1.5 2.7-2.4 1.6-1.7 2.8-3.9 3.5-6.1l.9.3c-.6 2.5-1.8 4.9-3.5 6.9s-3.9 3.6-6.3 4.7c-2.4 1-5.1 1.5-7.8 1.4s-5.3-.9-7.6-2.3z" fill="#1d1d1b"/><path d="m-296.2 357.4h-47.7c-2.2 0-3.9-1.8-3.9-3.9v-30.9c0-2.2 1.8-3.9 3.9-3.9h47.7c2.2 0 3.9 1.8 3.9 3.9v30.9c0 2.1-1.7 3.9-3.9 3.9z" fill="#fff"/><path d="m-331.2 318.1.8-1.6c.4-.8.6-1.6.8-2.5.5-2.6 2.8-4.5 5.5-4.5h8c2.8 0 5.1 2 5.5 4.6.1.8.3 1.5.7 2.2l1.1 2" fill="#fff"/><path d="m-331.4 319.8 1.2-2c.4-.8.6-1.8.8-2.7.5-2.8 2.8-4.9 5.5-4.9h7.9c2.8 0 5 2.2 5.5 5.1.1.8.3 1.7.7 2.4l1.1 2.2" fill="#fff"/><path d="m-315.6 328.3-1.9 2.1h5" fill="#1d1d1b"/><path d="m-312.8 330.4h1.2v-6.5l-4.2 4.6" fill="#1d1d1b"/><path d="m-314.9 327.8c-1.6-.9-3.3-1.5-5.3-1.6-5.7-.4-10.8 3.4-12.2 8.8 1.6-5.1 6.6-8.6 12.1-8.2 1.8.1 3.5.6 5 1.4" fill="#1d1d1b"/><path d="m-315.4 328.6c-1.4-.9-3-1.5-4.7-1.6-1.7-.2-3.4.1-5 .7s-3.1 1.6-4.2 2.9c-1.2 1.3-2 2.8-2.5 4.5l-.9-.3c.6-1.7 1.6-3.3 2.9-4.6s2.8-2.3 4.5-2.9 3.5-.9 5.2-.7c1.8.1 3.5.7 5 1.6-1.6-.8-3.3-1.3-5-1.3s-3.5.2-5 .9c-1.6.7-3 1.7-4.1 3s-2 2.8-2.5 4.4l-.9-.3c.5-1.8 1.3-3.6 2.5-5.1s2.8-2.7 4.6-3.4c1.8-.8 3.7-1.1 5.7-1s3.9.7 5.6 1.6z" fill="#1d1d1b"/><path d="m-325.4 347.9 1.9-2.1h-5" fill="#1d1d1b"/><path d="m-328.2 345.8h-1.1v6.5l4.1-4.6" fill="#1d1d1b"/><path d="m-326.1 348.4c1.6.9 3.3 1.5 5.3 1.6 5.7.4 10.8-3.4 12.2-8.8-1.6 5.1-6.6 8.6-12.1 8.2-1.8-.1-3.5-.6-5-1.4" fill="#1d1d1b"/><path d="m-325.6 347.6c1.4.9 3 1.5 4.7 1.6 1.7.2 3.4-.1 5-.7s3.1-1.6 4.2-2.9c1.2-1.3 2-2.8 2.5-4.5l.9.3c-.6 1.7-1.6 3.3-2.9 4.6s-2.8 2.3-4.5 2.9-3.5.9-5.2.7c-1.8-.1-3.5-.7-5-1.6 1.6.8 3.3 1.3 5 1.3s3.5-.2 5-.9c1.6-.7 3-1.7 4.1-3s2-2.8 2.5-4.4l.9.3c-.5 1.8-1.3 3.6-2.5 5.1s-2.8 2.7-4.6 3.4c-1.8.8-3.7 1.1-5.7 1s-3.9-.7-5.6-1.6z" fill="#1d1d1b"/><path d="m-735.6 298.6c-.6 0-1.2-.2-1.7-.6-1.8-1.5-3.5-3-5-4.3-4.4-3.8-8.2-7-10.9-10.2-3-3.6-4.3-7-4.3-10.7 0-3.6 1.2-6.9 3.5-9.3 2.3-2.5 5.4-3.8 8.7-3.8 2.5 0 4.8.8 6.9 2.4 1 .8 2 1.8 2.8 2.9.8-1.1 1.8-2.1 2.8-2.9 2-1.6 4.3-2.4 6.9-2.4 3.4 0 6.5 1.4 8.7 3.8s3.5 5.7 3.5 9.3c0 3.7-1.4 7.1-4.3 10.7-2.6 3.2-6.5 6.4-10.9 10.2-1.5 1.3-3.2 2.7-5 4.3-.5.4-1.1.6-1.7.6zm-10.1-37.1c-2.8 0-5.3 1.1-7.2 3.1s-2.9 4.8-2.9 7.9c0 3.2 1.2 6.1 3.9 9.4 2.6 3.2 6.5 6.5 11 10.3 1.6 1.3 3.4 2.9 5.2 4.5 1.9-1.6 3.7-3.1 5.2-4.5 4.5-3.8 8.4-7.1 11-10.3 2.7-3.3 3.9-6.2 3.9-9.4 0-3.1-1-5.9-2.9-7.9-1.8-2-4.4-3.1-7.2-3.1-2 0-3.9.6-5.5 1.9-1.5 1.1-2.5 2.6-3.1 3.6-.3.5-.8.8-1.4.8s-1.1-.3-1.4-.8c-.6-1-1.6-2.4-3.1-3.6-1.6-1.2-3.4-1.9-5.5-1.9z"/><path d="m-682.3 273c.2.1.5.1.7.2.5.2.7.5.5 1-1.3 2.7-2.6 5.3-4.6 7.5-4.1 4.8-9.3 7.7-15.6 8.7-.4.1-.7.2-.8.6-.8 2-1.6 4-2.3 6-.3.7-.5 1-1 .9s-.6-.5-.3-1.3c.7-2.3 1.5-4.5 2.6-6.7.1-.2.1-.5.1-.7 0-4.2.9-8.2 2.8-11.9 2.2-4.3 5.4-7.7 9.6-10.2 4.1-2.5 8.2-5 12.4-7.6.2-.1.4-.2.6-.2.5 0 .7.4.6 1.1-.4 1.5-.7 3-1.1 4.5-.5 2-1 4-1.5 6-.1.4-.3.7-.7.9-.7.3-1.4.7-2.1 1 .1.2.1.2.1.2zm-.3 1.3c-.6-.1-1.1-.3-1.7-.4-.4-.1-.7-.2-.7-.6-.1-.4.2-.6.6-.8 1.1-.5 2.2-1.1 3.3-1.7.2-.1.4-.3.4-.6.7-2.8 1.4-5.5 2.1-8.3 0-.1 0-.2 0-.4-.1.1-.2.1-.3.2-3.6 2.2-7.2 4.4-10.8 6.6-6.5 4-10.3 9.8-11.6 17.3-.1.5-.1 1-.2 1.4.2 0 .2-.1.3-.2 1.2-1.7 2.5-3.3 3.7-5 .4-.5.8-.5 1.1-.2s.3.6-.1 1.1c-1 1.3-2 2.5-2.9 3.8-.6.8-1 1.6-1.6 2.5 3.6-.6 6.8-2 9.6-3.9 4-2.7 6.8-6.3 8.8-10.8z"/><path d="m-691.9 296.6c.5-.4 1.1-.7 1.5-1.1 1.3-1.4 2.6-2.8 3.9-4.2.2-.3.4-.5.7-.8 1.8-2 4.5-1.3 5.6.4.6 1 .9 2 1 3.1 0 .4.2.9.4 1.3s.6.5 1 .3c.2-.1.5-.3.7-.4.4-.2.7-.5 1.1-.7 1.1-.5 2-.4 2.7.6.8 1.1 1.8 1.4 3 1.4h2.5c.5 0 .8.3.8.7 0 .5-.3.7-.8.6-1.3-.1-2.6-.1-3.9-.2-1-.1-1.8-.7-2.4-1.5s-.9-.8-1.8-.3c-.3.2-.6.4-.9.6-1.6 1-3.3.3-3.6-1.6-.1-.5-.1-1.1-.2-1.6-.2-.6-.4-1.3-.7-1.9-.9-1.3-2.4-1.4-3.5-.2-.8.9-1.6 1.9-2.4 2.9-1.1 1.2-2.2 2.3-3.6 3.1-.8.5-1.7.3-2.2-.4-.2-.2-.2-.5-.3-.8-.3-.8-.9-1.3-1.7-1.1-.7.2-1.3.6-1.9.9-.7.4-1.2 1-1.9 1.4-1 .6-2.1 1-3.2.6-.2-.1-.4-.1-.5-.2-.3-.2-.4-.5-.3-.8.2-.4.5-.5.8-.3 1.1.5 2 .1 2.9-.6.7-.5 1.3-1 2-1.5 1-.7 2-1 3.2-.7.9.2 1.6.8 1.9 1.7-.2.6-.1.9.1 1.3z"/><path d="m-655 260.9h46.6v36.8h-46.6z" fill="none" stroke="#000" stroke-miterlimit="10" stroke-width="2"/><path d="m-520.2 260.2h50.5v36.8h-50.5z" fill="none" stroke="#000" stroke-miterlimit="10" stroke-width="2"/><path d="m-654.8 293.4 23.8-22.7 9 8.4" fill="none" stroke="#000" stroke-miterlimit="10" stroke-width="2"/><path d="m-629.7 286.9 21.3-21.5" fill="none" stroke="#000" stroke-miterlimit="10" stroke-width="2"/><path d="m-500.7 293.8h11.4v13.9h-11.4z" fill="#f6f6f6" transform="matrix(0 1 -1 0 -194.2001 795.6917)"/><path d="m-486.3 297.1h-1.7l-6.8 7.2-7.1-7.2h-1.7" fill="none" stroke="#000" stroke-miterlimit="10" stroke-width="2"/><path d="m-415.9 257.7c0-.1 0-.1 0 0 0-.1 0-.1 0-.1s0 0 0-.1 0 0 0-.1v-.1-.1-.1c-.1-.1-.1-.2-.2-.3-.4-.4-.9-.6-1.5-.3l-44.2 18.3s0 0-.1 0c0 0 0 0-.1 0 0 0 0 0-.1 0 0 0 0 0-.1 0v.1.1.1.1.1.1.1.1.1.1.1.1.1.1.1.1.1s0 .1.1.1.1 0 .1.1h.1s.1 0 .1.1h.1l17.8 7.5 7.5 17.8v.1.1.1s0 .1.1.1 0 0 .1.1h.1s.1 0 .1.1h.1.1.1.1.1.1.1.1.1.1s.1 0 .1-.1h.1s.1 0 .1-.1 0-.1.1-.1 0 0 0-.1 0 0 0-.1v-.1l18.3-44.1c0-.1.1-.2.1-.3v-.1-.1c.3.3.3.2.3.2zm-42.3 18.2 35.7-14.7-21 21zm22.7 22.6-6.2-14.5 20.7-20.7z"/><path d="m-939.5-265.7h8.2c.9.2 1.7.4 2.6.5 15.7.7 30.9 3.9 45.8 8.7 27.8 9 52.5 23.6 75.6 41.2 5.6 4.2 11.1 8.6 16 13.6 5.7 5.6 7.8 12.7 4.1 20.3-1.5 3-3.7 5.7-6.1 8.1-13.6 13-28.3 24.5-44.4 34.2-26 15.6-53.9 25.8-84.3 28.4-28.9 2.4-56.7-3-83.3-14.3-23.1-9.7-43.9-23.3-62.7-39.7-6.8-5.9-14.6-11.2-17.3-20.7 0-1.9 0-3.9 0-5.8 1.7-5.9 5.2-10.6 9.9-14.5 20.3-16.6 41.8-31.4 65.8-42.2 17.6-7.9 35.9-13.6 55.1-16 4.9-.8 9.9-1.3 15-1.8zm-55.7 77.6c-.1 32.9 26.7 60 59.6 60.3 32.6.3 59.8-26.8 60-59.9s-26.8-60.4-59.7-60.4c-32.8-.1-59.8 26.9-59.9 60z"/><path d="m-912.5-188c0 12.7-10.3 23.2-22.8 23.4-12.4.2-23.2-10.7-23.1-23.5.1-12.7 10.6-23.3 23-23.3 12.5.1 22.9 10.7 22.9 23.4z"/><path d="m-513.2 275.2h8.7v8.7h-8.7z"/><path d="m-498.5 275.2h8.7v8.7h-8.7z"/><path d="m-483.8 275.2h8.7v8.7h-8.7z"/><path d="m-1594.1-1508.7c3.2 10.9 12.7 13.3 20.7 17.3 12.1 6 24.4 11.6 36.3 17.7 4.4 2.2 9 5 11.9 8.8 19.4 25.7 35 53.6 42.3 85.2 5.5 23.9 2.5 47.8-3.9 71.3-.1.4-.3.7-.3 1.1-.9 16.8-11.1 25.7-26 30.7-9.8 3.3-19.4 7.3-29.3 10-4.7 1.3-10.3.8-15.2-.2-4-.8-7 .1-10.5 1.5-6.2 2.6-12.4 5.7-19 6.9-15.6 2.9-31.2 3.8-46.3-2.7-1.9-.8-4.3-.4-6.5-.3-23.9 1.5-47.6 1.9-71.1-3.7-24.1-5.8-41.5-19.4-52.4-41.5-7.8-15.9-12.8-32.7-15.7-50.1-1.7-10.3.6-20.3 3.6-30 5.9-19.3 13.9-37.8 24.9-54.8 4.6-7 10.8-13.1 16.7-19.1 9.6-9.9 19.7-19.5 29.5-29.3 1.2-1.2 2.4-3.1 2.4-4.6 0-12.3 4.9-17.9 17-19.2 1.7-.2 3.4-1.1 4.9-2.1 3.7-2.5 7.1-5.3 10.8-7.8 10.1-6.9 20.7-11.1 33.3-8.4 7.7 1.6 15.5.4 22.7-3.3 2.1-1.1 4.4-2.1 6.7-2.7 4.9-1.2 9.9-5.9 14.6-.1 6 7.4 6.9 16.8 2.6 23.2-1.7 2.3-3.5 4.6-4.7 6.2zm-94.5 63c4.2 2.3 7.8 5.1 11.8 6.2 9.4 2.6 19 4.6 28.6 6.6 9.3 1.9 18.5.6 27.1-3.2 9.1-4 17.9-8.8 27.1-12.6 5.2-2.1 10.9-3.9 16.4-4 3.2 0 6.2.3 9.1-1.2.1-.1.5.4 1 .7-.6 1.2-1.3 2.4-1.7 3.2 1.9 2.4 3.4 4.4 5.1 6.5 1.1-.4 2.6-.9 5.2-1.8-4.2 6.5-4.7 12 .1 16.7-1.7 2.4-3.2 4.7-4.7 7-5.1 7.9-11.8 13.4-20.8 16.4-9.7 3.2-19.2 7.3-29 10.6-14.3 4.8-28.7 9.5-44.3 8.2-8.4-.7-17.1-.8-25.5.2-7 .8-13.6 3.9-20.5 5.5-4 .9-8.2 1.8-12.1 1.3-3.7-.5-7.2-2.8-10.8-4.2-14.2-5.7-26.6-13.6-34.2-27.5-.1-.2-.6-.1-1.5-.3-2.5 5.8-5.2 11.6-7.5 17.6-4.3 11.7-8.1 23.5-5.9 36.2 3 17.2 7.8 33.8 15.7 49.5 8.3 16.4 21.2 27.8 38 34.8 22.6 9.4 46.3 10.3 70.3 8.4 3.1-.3 6.3-.7 10.2-1.1-2.2-2.3-3.7-3.7-4.9-5.3-8.7-11.7-18.6-22.7-25.5-35.3-9.7-17.9-3.5-35.2 13.9-45.6 1.4-.8 2.7-1.7 4-2.5-.3-.5-.6-.9-.9-1.4-4.7 3.1-9.6 5.9-14.1 9.3-5.4 4.1-11.3 5.8-17.7 3.8-6.5-2.1-12.7-5.2-19.4-8.1 1.3-.9 2.5-1.7 4.3-3-3.5-3.1-6.8-6-9.4-8.3 1.1-1.5 3.6-3.4 3.7-5.4.1-2.1-2.1-4.3-3.2-6.3 1.6-.9 3.8-2.2 6-3.3 4.9-2.3 9.7-5.6 14.8-6.5 7.8-1.3 15.8-1.1 23.7-1.2 8.3-.1 16.8 1.4 24.9 0 30-5.4 58.7-14.7 83.3-33.7 13.6-10.5 26.3-22.6 46.4-19.2-8.1-14.8-16-28.5-32-34.9-4.8-1.9-9.2-4.6-13.8-7-11-5.6-21.9-11.1-33.6-17-.4 3-.7 5.2-.8 7.3-.2 2.8.6 6.1-.7 8.1-2.2 3.3-5.5 7.5-8.7 7.9-4.4.6-4.6-4.8-5-8.4-1.1-9.5-1.2-9.6-12.5-9 3.6-4.9 6.6-8.8 9.7-13-2.4-.4-4.7-1-7.1-1.3-14.5-1.8-26.4 4-36.8 13.5-10.8 9.9-20 21.4-33.5 28.5-7.5 4-6.7 7.7.5 12-.8 1.4-1.5 2.9-2.8 5.6zm42.8 88.1c16.8 2.1 27.9 11.2 33.8 26.8 3.9 10.3 7 21 10.8 31.4.7 1.9 2.8 4.3 4.5 4.6 8.7 1.4 17.5 2.1 26.2 3-2.2-1.4-4.6-2.3-7.1-2.7-5.5-.8-11-1.2-16.5-2.1-4.8-.8-8.4-6.4-8.8-12.7-.3-5.1 3.9-5.2 7-6.4 17.2-6.5 35.1-10.4 53.4-11.4 10.4-.6 20.8 0 30.2 5.1 8.6 4.6 13.2 11.8 12.3 21.7-.4 4.4-1.8 8.8-2.9 13.3 5.7-3.5 9.5-8.1 10.9-14.7.8-3.8 1.8-7.6 2.9-11.3 7.6-25.7 7.2-51.4.3-77.1-2.5-9.3-10.4-12.7-18.6-7.4-10.5 6.8-20.6 14.2-30.4 22-11.6 9.2-24.5 15.4-39 17.3-11.5 1.5-23.2 1.9-34.8 2-11.3.1-22.7-.9-34.2-1.4zm52.3-177.6c-2 .4-5 1.6-5.4 1.1-2.7-4.2-5.7-1.3-8.1-.3-11.6 4.8-23.3 6.2-35.8 4.6-5.1-.6-11.2.7-15.8 3.2-7.4 4-14.2 9.3-20.9 14.5-7.8 6.1-7.1 10.1 1.4 14.7 2 1.1 4.5 4 4.2 5.5-.5 2.1-3.1 4.7-5.3 5.3-6.9 1.8-14 2.2-19.2-3.3-13.7 13.1-27.2 26-40.5 39.1-3.3 3.2-5.7 7.3-8.5 11 20.2-5.6 40.1 3.6 59.8-1.6-.6-.7-.9-1.3-1.4-1.7-8.8-9.4-8-17.1 2.6-24.2 1.8-1.2 3.9-2.1 5.7-3.4 3.5-2.4 7.6-4.3 10.2-7.5 11.4-13.8 23.7-26.1 41-29.9-4.7-2.9-9.9-5.7-14.7-9.2-3.4-2.5-2.3-6.6 1.6-8.4 9.3-4.3 17.6-.1 19.5 10 .1.8.3 1.5.2 1 4.4-.5 9-2.4 11.7-.9 2.9 1.6 3.9 6.5 5.9 10.2 2.4-.8 5.1-1.6 8.4-2.6-1.2-1-2-1.7-2.9-2.5 11.1-6.1 13-13.6 6.3-24.7z"/><path d="m-1663-1471.4c.1-.9.1-2.2.4-3.5.7-4 2.1-8.1 6.9-7.9 4.7.2 7.5 3.4 8.5 8.1.6 3.1 1 6.2 2 9.1 1 3 2 6.4-1.4 7.7-2.9 1.1-7.1 1.4-9.6 0-4.8-2.6-6.7-7.6-6.8-13.5z"/><g fill="none"><path d="m-994.6 353.2 11-10.8 10 9.8" stroke="#1d1d1b" stroke-miterlimit="10" stroke-width="2"/><path d="m-983.6 342.4v23.1" stroke="#1d1d1b" stroke-miterlimit="10" stroke-width="2"/><path d="m388-537.8 171.4.4" stroke="#000" stroke-miterlimit="10" stroke-width="2"/><path d="m271.7-429.2 171.4.4" stroke="#000" stroke-miterlimit="10" stroke-width="2"/><path d="m271.4-537.6 46.1.1" stroke="#000" stroke-miterlimit="10" stroke-width="2"/><path d="m513.5-429.1 46.1.1" stroke="#000" stroke-miterlimit="10" stroke-width="2"/><circle cx="352.8" cy="-537.6" r="35.2" stroke="#000" stroke-miterlimit="10" stroke-width="2"/><path d="m388.3-313.2 171.4.3" stroke="#000" stroke-miterlimit="10" stroke-width="2"/><path d="m271.1-313.1 46.2.1" stroke="#000" stroke-miterlimit="10" stroke-width="2"/><circle cx="354" cy="-313.1" r="35.2" stroke="#000" stroke-miterlimit="10" stroke-width="2"/><circle cx="481.2" cy="-429" r="35.2" stroke="#000" stroke-miterlimit="10" stroke-width="2"/></g><path d="m217.8-126.8 29.2 30.7-38.9 9.3z"/><path d="m227.6-145.8 83.3-85.3 40 37.5-85.3 84.9z"/><path d="m327-245.2 23.9-22.9 37.9 35.6-24.3 22.4z"/><g fill="none" stroke-miterlimit="10"><path d="m195.7-255v62.8" stroke="#000" stroke-width="2"/><path d="m195.7-314.4v-57.4h56.7" stroke="#000" stroke-width="2"/><path d="m315.8-371.8h54" stroke="#000" stroke-width="2"/><path d="m434.6-371.8h56.1v57.4" stroke="#000" stroke-width="2"/><path d="m490.7-131.5v51.3h-56.1" stroke="#000" stroke-width="2"/><path d="m490.7-249.6v52" stroke="#000" stroke-width="2"/><path d="m315.8-76.1h54" stroke="#000" stroke-width="2"/><path d="m229.2 2.5-158.4 136.9" stroke="#1d1d1b" stroke-width="5"/><path d="m70.9 139.1 137 158.4" stroke="#1d1d1b" stroke-width="5"/><g stroke-width="2"><path d="m-696.5 326.8c-2-.5-4.1-.8-6.3-.8-13.6 0-24.6 11-24.6 24.6s11 24.6 24.6 24.6 24.6-11 24.6-24.6c0-7.9-3.7-14.9-9.5-19.4" stroke="#000"/><path d="m-702.7 334.1v33.3" stroke="#000"/><path d="m-719.2 350.6h12.7" stroke="#000"/><path d="m-698.9 350.7h12.7" stroke="#000"/><path d="m-633.5 367.4c-6 0-10.9-4.9-10.9-10.9v-17.2c0-6 4.9-10.9 10.9-10.9s10.9 4.9 10.9 10.9v17.2c0 6-4.9 10.9-10.9 10.9z" stroke="#000"/><path d="m-618 356.1v3.2c0 8.2-6.6 14.8-14.8 14.8h-1.2c-8.2 0-14.8-6.6-14.8-14.8v-3.2" stroke="#000"/><path d="m-633.5 374v6" stroke="#000"/><path d="m-644.1 380h20.9" stroke="#000"/><path d="m-644.3 341.9h9.9" stroke="#000"/><path d="m-644.3 347.2h9.9" stroke="#000"/><path d="m-644.3 352.5h9.9" stroke="#000"/><path d="m-644.3 357.7h9.9" stroke="#000"/><circle cx="-563.3" cy="335.8" r="10.4" stroke="#000"/><circle cx="-587" cy="338.2" r="7.4" stroke="#000"/><path d="m-547.9 360.6 11.9-6v22.7l-11.4-5.8" stroke="#000"/><path d="m-557.9 380.3h-34.9c-2.4 0-4.3-1.9-4.3-4.3v-20.9c0-2.4 1.9-4.3 4.3-4.3h34.9c2.4 0 4.3 1.9 4.3 4.3v20.9c.1 2.4-1.9 4.3-4.3 4.3z" stroke="#000"/><path d="m-394.8 232.5h-47.7c-2.2 0-3.9-1.8-3.9-3.9v-30.9c0-2.2 1.8-3.9 3.9-3.9h47.7c2.2 0 3.9 1.8 3.9 3.9v30.9c.1 2.1-1.7 3.9-3.9 3.9z" stroke="#1d1d1b"/><ellipse cx="-418.6" cy="211.5" rx="13.3" ry="13.3" stroke="#1d1d1b" transform="matrix(.1595 -.9872 .9872 .1595 -560.5725 -235.5051)"/><path d="m-429.8 193.2.8-1.6c.4-.8.6-1.6.8-2.5.5-2.6 2.8-4.5 5.5-4.5h8c2.8 0 5.1 2 5.5 4.6.1.8.3 1.5.7 2.2l1.1 2" stroke="#1d1d1b"/></g></g><path d="m-430 194.9 1.2-2c.4-.8.6-1.8.8-2.7.5-2.8 2.8-4.9 5.5-4.9h7.9c2.8 0 5 2.2 5.5 5.1.1.8.3 1.7.7 2.4l1.1 2.2" fill="#fff"/><path d="m-423.2 193.9h9.2v.4h-9.2z" fill="none" stroke="#1d1d1b" stroke-miterlimit="10" stroke-width=".75"/><path d="m-389.8 353.9c0-1.8-1.3-3.7-2.9-4.3s-3.1-2-3.6-3c-.5-1.1-.3-3.2.4-4.7s.3-3.8-1-5.1-3.5-1.7-5.1-1c-1.5.7-3.6.8-4.7.4-1.1-.5-2.5-2-3-3.6-.6-1.6-2.5-2.9-4.3-2.9s-3.7 1.3-4.3 2.9-2 3.2-3 3.6c-1.1.5-3.2.3-4.7-.4s-3.8-.3-5.1 1-1.7 3.5-1 5.1c.7 1.5.8 3.6.4 4.7-.5 1.1-2 2.5-3.6 3-1.6.6-2.9 2.5-2.9 4.3s1.3 3.7 2.9 4.3 3.1 2 3.6 3c.5 1.1.3 3.2-.4 4.7s-.3 3.8 1 5.1 3.5 1.7 5.1 1c1.5-.7 3.6-.8 4.7-.4 1.1.5 2.5 2 3 3.6.6 1.6 2.5 2.9 4.3 2.9s3.7-1.3 4.3-2.9 2-3.2 3-3.6c1.1-.5 3.2-.3 4.7.4s3.8.3 5.1-1 1.7-3.5 1-5.1c-.7-1.5-.8-3.6-.4-4.7.5-1.1 2-2.5 3.6-3s2.9-2.5 2.9-4.3zm-24.2 8.9c-4.9 0-8.9-4-8.9-8.9s4-8.9 8.9-8.9 8.9 4 8.9 8.9c0 5-4 8.9-8.9 8.9z"/><path d="m-462.1 357.1c0-1.8-1.3-3.7-2.9-4.3s-3.1-2-3.6-3c-.5-1.1-.3-3.2.4-4.7s.3-3.8-1-5.1-3.5-1.7-5.1-1c-1.5.7-3.6.8-4.7.4-1.1-.5-2.5-2-3-3.6-.6-1.6-2.5-2.9-4.3-2.9s-3.7 1.3-4.3 2.9-2 3.2-3 3.6-3.2.3-4.7-.4-3.8-.3-5.1 1-1.7 3.5-1 5.1.8 3.6.4 4.7c-.5 1.1-2 2.5-3.6 3s-2.9 2.5-2.9 4.3 1.3 3.7 2.9 4.3 3.1 2 3.6 3c.5 1.1.3 3.2-.4 4.7s-.3 3.8 1 5.1 3.5 1.7 5.1 1c1.5-.7 3.6-.8 4.7-.4 1.1.5 2.5 2 3 3.6.6 1.6 2.5 2.9 4.3 2.9s3.7-1.3 4.3-2.9 2-3.1 3-3.6c1.1-.5 3.2-.3 4.7.4s3.8.3 5.1-1 1.7-3.5 1-5.1c-.7-1.5-.8-3.6-.4-4.7.5-1.1 2-2.5 3.6-3s2.9-2.5 2.9-4.3zm-24.2 8.9c-4.9 0-8.9-4-8.9-8.9s4-8.9 8.9-8.9 8.9 4 8.9 8.9-4 8.9-8.9 8.9z" fill="#fff" stroke="#1d1d1b" stroke-miterlimit="10" stroke-width="2"/><path d="m-1650.5-1076.2 3.4-2.7c3 4 8.1 7.2 14.2 7.2 8.1 0 12.1-4.4 12.1-9.4 0-5.8-6.5-7.2-13-8.8-7.3-1.8-14.6-4-14.6-12.2 0-6.5 5.9-12.2 15.3-12.2 6.4 0 12 2.4 15.6 6.5l-3.3 2.7c-3.1-3.4-6.9-5.3-12.3-5.3-7 0-11 3.5-11 8.3 0 5.5 6.2 7 12.6 8.6 7.4 1.8 15 4.1 15 12.5 0 6.3-5.2 13.3-16.6 13.3-7.5-.2-13.8-3.6-17.4-8.5z"/><path d="m-1613.2-1113.4h4.2v9.1c3-5.9 9.2-10 17.2-10 11.9 0 19.8 7.8 19.8 20.5v25h-4.3v-25.1c0-9.9-6-16.4-16-16.4-9.4 0-16.5 7.1-16.5 16.5v25h-4.3v-44.6z"/><path d="m-1568.8-1091.1c0-12.8 9.9-23.3 23-23.3 7.3 0 15.2 4 18.7 11.2v-10.3h4.3v44.6h-4.3v-10.2c-3.5 7.2-11.4 11.1-18.7 11.1-13.1.1-23-10.3-23-23.1zm42.1 0c0-10.6-8.3-19.2-19-19.2-10.4 0-18.8 8.5-18.8 19.2s8.3 19.1 18.8 19.1c10.7.1 19-8.4 19-19.1z"/><path d="m-1519.5-1091.1c0-12.8 9.9-23.3 23-23.3 7.3 0 15.2 4 18.7 11.2v-10.3h4.3v43.7c0 13.8-8.8 22.5-22.3 22.5-11 0-16.8-4.6-21.1-12.2l4.2-1.9c3.3 6.3 8.1 10.1 16.9 10.1 11.1 0 18-7.2 18-18.4v-9.5c-3.5 7.2-11.4 11.1-18.7 11.1-13.1.2-23-10.2-23-23zm42.2 0c0-10.6-8.3-19.2-19-19.2-10.4 0-18.8 8.5-18.8 19.2s8.3 19.1 18.8 19.1c10.7.1 19-8.4 19-19.1z"/><path d="m-1372.3-1114.2c-8.6 0-15.1 4.7-17.8 11.1-2.4-6.7-8.2-11.1-17.2-11.1-3 0-5.6.6-8 1.6.8 1 1.5 2.1 2.1 3.3 1.7-.6 3.6-.9 5.6-.9 9.3 0 15.1 5.9 15.1 14.6v26.9h4.3v-26.1c0-9.5 6.9-15.5 15.8-15.5 9.5 0 15.6 6.5 15.6 15.5v26.1h4.3v-25.8c.1-11.7-7.4-19.7-19.8-19.7z"/><path d="m-1408.4-1097.3c-.8-4.5-2.5-8.8-4.9-12.6-2.5-3.8-5.7-7-9.4-9.5-1.9-1.2-3.8-2.3-5.9-3.1s-4.2-1.4-6.3-1.8l-.1.4c2.1.6 4.1 1.3 6 2.3 1.9.9 3.8 2.1 5.4 3.4 1.7 1.3 3.2 2.8 4.6 4.4s2.6 3.3 3.6 5.2c1 1.8 1.9 3.8 2.6 5.7.3 1 .6 2 .8 3s.4 2 .5 3.1c.3 2.1.3 4.1.1 6.2-.1 1-.2 2.1-.4 3.1s-.4 2-.7 3-.6 1.9-1 2.9c-.4.9-.9 1.9-1.4 2.7-.5.9-1.1 1.7-1.6 2.6-.6.8-1.2 1.6-1.9 2.4-1.3 1.5-2.8 3-4.3 4.3-1.6 1.3-3.2 2.5-4.9 3.6-2.9 1.8-6 3.3-9.3 4.3 1.2-1.3 2.1-3 2.6-4.9.1-.4.2-.8.2-1.3.1-.8.2-1.6 0-2.5-.1-.7-.3-1.4-.5-2.1v-.1c-1.2-3.4-4.1-6.2-7.9-7-4.5-1-8.9.9-11.3 4.5-8-1.9-20.3-15.7-12.3-29.6 1 .9 2.6 1.3 4.9 1.2 3.5-.2 6.4-2.7 6.4-6.1s-2.9-6.1-6.4-6.1-6.4 2.7-6.4 6.1c0 1.7.2 3 .7 3.9 0 1-2.1 3.1-3 4.4-.9 1.5-10.1 12.1-3.3 26.8.8 1.7 1.7 3.2 2.7 4.5s9 14.7 31.7 11.8h.3c1.5-.2 3-.4 4.5-.8.2 0 .4-.1.6-.1 2.7-.7 5.4-1.8 7.9-3.2 2-1.1 3.9-2.4 5.7-3.9s3.4-3.2 4.8-5c2.8-3.7 4.9-8 6-12.4.3-1.1.5-2.3.6-3.4.2-1.1.2-2.3.3-3.4.3-2.4.1-4.7-.3-6.9z"/><path d="m-1443.9-1085.4c2.2 1.4 4.7.4 5.4-2 .7-2.2-.3-4.9-2.3-6.2-2.2-1.4-4.7-.6-5.5 1.9-.6 2.2.4 5 2.4 6.3z"/><path d="m-1459.7-1098c-2.3.3-4.5 2.3-4.8 4.7-.4 2.6 1.5 4.5 4.1 4.1 2.3-.3 4.3-2.3 4.7-4.6.4-2.5-1.4-4.5-4-4.2z"/><path d="m-1452.6-1081.3c1.3.2 2.5-.1 2.6-.8s-.9-1.4-2.2-1.6-2.5.1-2.6.8.9 1.4 2.2 1.6z"/><path d="m-1321.6-1187.9h174.5v99.1h-174.5z" fill="#fff"/><path d="m-1216.4-1141.6c-.4-2.4-1.3-4.7-2.6-6.7s-3-3.8-5-5.1c-1-.7-2.1-1.2-3.2-1.7-1.1-.4-2.2-.8-3.4-1l-.1.2c1.1.3 2.2.7 3.2 1.2s2 1.1 2.9 1.8 1.7 1.5 2.5 2.3c.7.9 1.4 1.8 2 2.8s1 2 1.4 3.1c.2.5.3 1.1.4 1.6s.2 1.1.3 1.7c.1 1.1.2 2.2.1 3.3 0 .6-.1 1.1-.2 1.6s-.2 1.1-.4 1.6-.3 1-.6 1.5c-.2.5-.5 1-.7 1.5-.3.5-.6.9-.9 1.4-.3.4-.7.9-1 1.3-.7.8-1.5 1.6-2.3 2.3s-1.7 1.4-2.7 2c-1.5 1-3.2 1.7-5 2.3.7-.7 1.2-1.6 1.4-2.7.1-.2.1-.5.1-.7.1-.4.1-.8 0-1.3-.1-.4-.2-.8-.3-1.1-.6-1.8-2.2-3.3-4.2-3.8-2.4-.5-4.8.5-6.1 2.4-4.3-1-10.9-8.4-6.6-15.9.5.5 1.4.7 2.6.6 1.9-.1 3.4-1.5 3.4-3.3s-1.5-3.3-3.4-3.3-3.4 1.5-3.4 3.3c0 .9.1 1.6.4 2.1 0 .5-1.2 1.6-1.6 2.4-.5.8-5.4 6.5-1.8 14.4.4.9.9 1.7 1.4 2.4s4.9 7.9 17 6.3h.2c.8-.1 1.6-.2 2.4-.4.1 0 .2-.1.3-.1 1.5-.4 2.9-1 4.3-1.7 1.1-.6 2.1-1.3 3.1-2.1s1.8-1.7 2.6-2.7c1.5-2 2.6-4.3 3.2-6.7.1-.6.3-1.2.3-1.8.1-.6.1-1.2.2-1.8.1-1.1 0-2.3-.2-3.5z"/><path d="m-1235.4-1135.3c1.2.7 2.5.2 2.9-1.1.4-1.2-.2-2.6-1.2-3.3-1.2-.8-2.5-.3-2.9 1-.5 1.3.1 2.8 1.2 3.4z"/><path d="m-1243.9-1142c-1.3.1-2.4 1.2-2.6 2.5-.2 1.4.8 2.4 2.2 2.2 1.2-.2 2.3-1.2 2.5-2.5s-.7-2.4-2.1-2.2z"/><path d="m-1240.1-1133c.7.1 1.3-.1 1.4-.4s-.5-.7-1.2-.8-1.3.1-1.4.4.5.6 1.2.8z"/><path d="m-1147-1089.3h174.5v99.1h-174.5z" fill="url(#a)"/><path d="m-1041.9-1043.1c-.4-2.4-1.3-4.7-2.6-6.7s-3-3.8-5-5.1c-1-.7-2.1-1.2-3.2-1.7-1.1-.4-2.2-.8-3.4-1l-.1.2c1.1.3 2.2.7 3.2 1.2s2 1.1 2.9 1.8 1.7 1.5 2.5 2.3c.7.9 1.4 1.8 2 2.8s1 2 1.4 3.1c.2.5.3 1.1.4 1.6s.2 1.1.3 1.7c.1 1.1.2 2.2.1 3.3 0 .6-.1 1.1-.2 1.6s-.2 1.1-.4 1.6-.3 1-.6 1.5c-.2.5-.5 1-.7 1.5-.3.5-.6.9-.9 1.4-.3.4-.7.9-1 1.3-.7.8-1.5 1.6-2.3 2.3s-1.7 1.4-2.7 2c-1.5 1-3.2 1.7-5 2.3.7-.7 1.2-1.6 1.4-2.7.1-.2.1-.5.1-.7.1-.4.1-.8 0-1.3-.1-.4-.2-.8-.3-1.1-.6-1.8-2.2-3.3-4.2-3.8-2.4-.5-4.8.5-6.1 2.4-4.3-1-10.9-8.4-6.6-15.9.5.5 1.4.7 2.6.6 1.9-.1 3.4-1.5 3.4-3.3s-1.5-3.3-3.4-3.3-3.4 1.5-3.4 3.3c0 .9.1 1.6.4 2.1 0 .5-1.2 1.6-1.6 2.4-.5.8-5.4 6.5-1.8 14.4.4.9.9 1.7 1.4 2.4s4.9 7.9 17 6.3h.2c.8-.1 1.6-.2 2.4-.4.1 0 .2-.1.3-.1 1.5-.4 2.9-1 4.3-1.7 1.1-.6 2.1-1.3 3.1-2.1s1.8-1.7 2.6-2.7c1.5-2 2.6-4.3 3.2-6.7.1-.6.3-1.2.3-1.8.1-.6.1-1.2.2-1.8.1-1.1.1-2.3-.2-3.5z"/><path d="m-1060.9-1036.7c1.2.7 2.5.2 2.9-1.1.4-1.2-.2-2.6-1.2-3.3-1.2-.8-2.5-.3-2.9 1-.4 1.2.1 2.7 1.2 3.4z"/><path d="m-1069.4-1043.5c-1.3.1-2.4 1.2-2.6 2.5-.2 1.4.8 2.4 2.2 2.2 1.2-.2 2.3-1.2 2.5-2.5.3-1.3-.7-2.3-2.1-2.2z"/><path d="m-1065.6-1034.5c.7.1 1.3-.1 1.4-.4s-.5-.7-1.2-.8-1.3.1-1.4.4c0 .3.5.7 1.2.8z"/><path d="m-1146.5-1188h174.5v99.1h-174.5z" fill="#ff6c1a"/><path d="m-1321.6-1089.3h174.5v99.1h-174.5z" fill="#f4f4f4"/><path d="m-1216.4-1041.9c-.4-2.4-1.3-4.7-2.6-6.7s-3-3.8-5-5.1c-1-.7-2.1-1.2-3.2-1.7-1.1-.4-2.2-.8-3.4-1l-.1.2c1.1.3 2.2.7 3.2 1.2s2 1.1 2.9 1.8 1.7 1.5 2.5 2.3c.7.9 1.4 1.8 2 2.8s1 2 1.4 3.1c.2.5.3 1.1.4 1.6s.2 1.1.3 1.7c.1 1.1.2 2.2.1 3.3 0 .6-.1 1.1-.2 1.6s-.2 1.1-.4 1.6-.3 1-.6 1.5c-.2.5-.5 1-.7 1.5-.3.5-.6.9-.9 1.4-.3.4-.7.9-1 1.3-.7.8-1.5 1.6-2.3 2.3s-1.7 1.4-2.7 2c-1.5 1-3.2 1.7-5 2.3.7-.7 1.2-1.6 1.4-2.7.1-.2.1-.5.1-.7.1-.4.1-.8 0-1.3-.1-.4-.2-.8-.3-1.1-.6-1.8-2.2-3.3-4.2-3.8-2.4-.5-4.8.5-6.1 2.4-4.3-1-10.9-8.4-6.6-15.9.5.5 1.4.7 2.6.6 1.9-.1 3.4-1.5 3.4-3.3s-1.5-3.3-3.4-3.3-3.4 1.5-3.4 3.3c0 .9.1 1.6.4 2.1 0 .5-1.2 1.6-1.6 2.4-.5.8-5.4 6.5-1.8 14.4.4.9.9 1.7 1.4 2.4s4.9 7.9 17 6.3h.2c.8-.1 1.6-.2 2.4-.4.1 0 .2-.1.3-.1 1.5-.4 2.9-1 4.3-1.7 1.1-.6 2.1-1.3 3.1-2.1s1.8-1.7 2.6-2.7c1.5-2 2.6-4.3 3.2-6.7.1-.6.3-1.2.3-1.8.1-.6.1-1.2.2-1.8.1-1 0-2.3-.2-3.5z" fill="url(#c)"/><path d="m-1235.4-1035.5c1.2.7 2.5.2 2.9-1.1.4-1.2-.2-2.6-1.2-3.3-1.2-.8-2.5-.3-2.9 1-.5 1.3.1 2.7 1.2 3.4z" fill="#6b3bf3"/><path d="m-1243.9-1042.2c-1.3.1-2.4 1.2-2.6 2.5-.2 1.4.8 2.4 2.2 2.2 1.2-.2 2.3-1.2 2.5-2.5s-.7-2.4-2.1-2.2z" fill="#6b3bf3"/><path d="m-1240.1-1033.3c.7.1 1.3-.1 1.4-.4s-.5-.7-1.2-.8-1.3.1-1.4.4.5.7 1.2.8z" fill="#6b3bf3"/><path d="m-429.9-693.2c-3.4-19.6-10.8-38.3-21.5-54.8s-24.7-30.6-40.9-41.4c-8.1-5.4-16.7-9.9-25.6-13.5s-18.2-6.2-27.6-8l-.4 1.9c9.1 2.4 18 5.7 26.4 9.9 8.4 4.1 16.4 9.1 23.7 14.7 7.3 5.7 14.1 12 20.2 19s11.4 14.5 15.9 22.5 8.3 16.4 11.1 25c1.4 4.3 2.6 8.7 3.6 13.2 1 4.4 1.7 8.9 2.3 13.4 1.1 9 1.3 18.1.6 27-.4 4.5-1 9-1.8 13.4s-1.8 8.8-3.1 13.1-2.7 8.5-4.5 12.5c-1.8 4.1-3.7 8.1-5.9 11.9-2.2 3.9-4.6 7.6-7.2 11.2s-5.3 7.1-8.2 10.5c-5.8 6.7-12.1 13-18.9 18.8s-14 11.1-21.6 15.8c-12.6 7.9-26.2 14.2-40.5 18.7 5.4-5.9 9.3-13.2 11.2-21.5.4-1.8.7-3.7.9-5.5.6-3.3.7-6.8 0-10.7-.5-3.2-1.3-6.3-2.3-9 0-.1 0-.1-.1-.2 0-.1-.1-.2-.1-.3-5.2-14.9-17.7-26.8-34.3-30.5-19.5-4.3-38.9 4.1-49.4 19.7-34.7-8.2-88.4-68.4-53.7-128.9 4.4 4.1 11.4 5.5 21.4 5.1 15.4-.7 27.9-11.9 27.9-26.5 0-14.7-12.5-26.5-27.9-26.5s-27.9 11.9-27.9 26.5c0 7.4 1 13 3.2 17.1.1 4.3-9.4 13.4-12.9 19.3-3.9 6.4-44 52.8-14.3 116.7 3.4 7.4 7.4 13.9 11.7 19.7s39.4 63.9 138.2 51.4c.5 0 1-.1 1.5-.1 6.6-.7 13.1-1.9 19.5-3.5.9-.2 1.9-.4 2.8-.6h-.2c12-3.2 23.6-7.9 34.5-13.8 8.8-4.8 17.2-10.4 24.9-16.9s14.8-13.8 21-21.8c12.4-16 21.3-34.7 26.1-54.3 1.2-4.9 2.1-9.8 2.7-14.8.7-4.9 1.1-9.9 1.3-14.9.6-10.3-.1-20.2-1.8-30z" fill="url(#d)"/><path d="m-584.6-641.3c9.6 6 20.5 1.9 23.7-8.9 2.9-9.6-1.4-21.2-10-26.8-9.5-6.3-20.5-2.4-23.9 8.4-3.1 9.7 1.4 21.7 10.2 27.3z" fill="#6b3bf3"/><path d="m-653.5-696.1c-10.2 1.1-19.4 10.1-20.9 20.4-1.6 11.2 6.6 19.5 17.8 18 10-1.3 18.8-9.9 20.5-20 1.8-11.2-6.2-19.6-17.4-18.4z" fill="#6b3bf3"/><path d="m-622.7-623.3c5.7 1 10.7-.5 11.2-3.3s-3.7-5.9-9.4-6.9-10.7.5-11.2 3.3 3.7 5.9 9.4 6.9z" fill="#6b3bf3"/><path d="m-1041.3-1141.8c-.4-2.4-1.3-4.7-2.6-6.7s-3-3.8-5-5.1c-1-.7-2.1-1.2-3.2-1.7-1.1-.4-2.2-.8-3.4-1l-.1.2c1.1.3 2.2.7 3.2 1.2s2 1.1 2.9 1.8 1.7 1.5 2.5 2.3c.7.9 1.4 1.8 2 2.8s1 2 1.4 3.1c.2.5.3 1.1.4 1.6s.2 1.1.3 1.7c.1 1.1.2 2.2.1 3.3 0 .6-.1 1.1-.2 1.6s-.2 1.1-.4 1.6-.3 1-.6 1.5c-.2.5-.5 1-.7 1.5-.3.5-.6.9-.9 1.4-.3.4-.7.9-1 1.3-.7.8-1.5 1.6-2.3 2.3s-1.7 1.4-2.7 2c-1.5 1-3.2 1.7-5 2.3.7-.7 1.2-1.6 1.4-2.7.1-.2.1-.5.1-.7.1-.4.1-.8 0-1.3-.1-.4-.2-.8-.3-1.1-.6-1.8-2.2-3.3-4.2-3.8-2.4-.5-4.8.5-6.1 2.4-4.3-1-10.9-8.4-6.6-15.9.5.5 1.4.7 2.6.6 1.9-.1 3.4-1.5 3.4-3.3s-1.5-3.3-3.4-3.3-3.4 1.5-3.4 3.3c0 .9.1 1.6.4 2.1 0 .5-1.2 1.6-1.6 2.4-.5.8-5.4 6.5-1.8 14.4.4.9.9 1.7 1.4 2.4s4.9 7.9 17 6.3h.2c.8-.1 1.6-.2 2.4-.4.1 0 .2-.1.3-.1 1.5-.4 2.9-1 4.3-1.7 1.1-.6 2.1-1.3 3.1-2.1s1.8-1.7 2.6-2.7c1.5-2 2.6-4.3 3.2-6.7.1-.6.3-1.2.3-1.8.1-.6.1-1.2.2-1.8.1-1.1 0-2.3-.2-3.5z"/><path d="m-1060.4-1135.4c1.2.7 2.5.2 2.9-1.1.4-1.2-.2-2.6-1.2-3.3-1.2-.8-2.5-.3-2.9 1-.4 1.2.2 2.7 1.2 3.4z"/><path d="m-1068.8-1142.2c-1.3.1-2.4 1.2-2.6 2.5-.2 1.4.8 2.4 2.2 2.2 1.2-.2 2.3-1.2 2.5-2.5s-.8-2.3-2.1-2.2z"/><path d="m-1065-1133.2c.7.1 1.3-.1 1.4-.4s-.5-.7-1.2-.8-1.3.1-1.4.4.5.7 1.2.8z"/><path d="m-141.8-189.6c46.8-7.7 85.6-29.5 116.7-65.3 14.7-16.9 24.7-36.6 34.3-56.5 1.8-3.7.2-6.6-3.7-7.7-1.8-.5-3.7-.9-5.5-1.4 0-.3 0-.6 0-.9 5.2-2.6 10.3-5.4 15.6-7.8 3-1.4 4.5-3.4 5.3-6.6 3.7-15.1 7.5-30.1 11.3-45.2 2.8-11.2 5.6-22.3 8.4-33.5 1.2-5-.4-8.2-4.3-8-1.6.1-3.2.9-4.6 1.7-30.9 18.9-61.8 37.8-92.8 56.6-31.1 18.9-55.2 44.3-71.9 76.6-14.5 28-21.5 57.8-21.3 89.4 0 1.9-.1 4-.9 5.6-8.1 16.1-14.5 32.9-19.7 50.1-1.7 5.5-.9 8.5 2.6 9.5 3.3.9 5.2-1.2 7.1-6.4 5.7-15.1 11.6-30.2 17.3-45.3 1.1-3.1 3-4.4 6.1-4.9z" fill="#fff"/><path d="m107.7-142.9c-6.3-.1-12.7-.3-19-.4-9.3 0-17-2.6-22.7-10.8-5.1-7.2-12-8.3-20-4.5-2.9 1.4-5.6 3.3-8.3 4.9-1.8 1-3.5 2.2-5.4 3-3.2 1.4-6.1.6-7.5-2.6-1.4-3-2.4-6.3-2.7-9.6-.9-8.3-2.4-16.3-7.2-23.5-8.7-12.8-28.3-18.6-42-3.3-1.7 1.9-3.2 4-5 5.9-9.6 10.5-19.1 21-29 31.3-2.9 3.1-6.9 5.1-11 8.1-1.1-2.9-1.9-4.8-2.5-6.7-2.1-7.2-7-11.2-14.1-13-8.8-2.2-16.7.4-23.8 5.4-5.1 3.6-9.7 7.7-14.7 11.4-6.5 4.8-13.3 8-21.6 4.3-2.5-1.1-4.9-.1-6.1 2.6-1.1 2.7-.3 4.8 2.1 6.3 1.2.7 2.5 1.3 3.9 1.7 8.9 2.6 17 .2 24.4-4.6 4.9-3.2 9-7.4 13.9-10.5 4.4-2.8 9.1-5.6 14-7 6.3-1.8 10.9 1.7 12.9 7.9.7 2.1 1.3 4.3 2.5 6.1 3.6 5.5 10.2 6.8 16.5 3.1 10.4-6.1 18.7-14.6 26.6-23.6 6.2-7 11.8-14.4 18-21.4 7.9-8.9 19.3-8.5 26.1 1.3 2.7 4 4.1 9.1 5.4 13.9 1.1 3.8 1 8 1.8 11.9 2.8 13.8 15.2 19.2 27.2 11.9 2.2-1.4 4.3-2.8 6.5-4.3 6.2-4.3 8.9-4 13.3 2 4.7 6.3 10.7 10.4 18.4 11.2 9.8 1 19.6 1.1 29.4 1.5 3.3.1 5.6-1.4 5.9-4.8 0-3.1-2.3-5.1-6.2-5.1z" fill="#fff"/><path d="m-362.5-1174c-59.1-40.9-118.3-81.7-177.4-122.7-7.8-5.4-15.7-8.9-25-4.2-9.5 4.7-10.6 13.2-10.6 22.5.2 40.9.1 81.8.1 122.7 0 41.5.1 83-.1 124.5 0 9.4 1.8 17.4 11.3 22.1 9.2 4.5 16.6.7 24.1-4.5 59.1-41 118.3-81.8 177.4-122.7 17.5-12.2 17.6-25.6.2-37.7z"/><path d="m-1273.5-1498.7h294.8v233h-294.8z" fill="none" stroke="#000" stroke-miterlimit="10" stroke-width="2"/><path d="m-1272.3-1293 150.6-143.9 56.7 53.2" fill="none" stroke="#000" stroke-miterlimit="10" stroke-width="2"/><path d="m-978.5-1470.7-135.2 136.2"/><path d="m-1261.5-1487.1c4.2.1 8.3-.5 12.2-2 .8-.3 1.4-1 .1-.9-4.4.4-8.9-.4-12.9-2.4-.8.4-1.5.7-2.3 1.1h66.2 18.7c.6 0 1.5-.1 2-.5.4-.3.5-.6-.2-.6-22.1 0-44.1 0-66.2 0-6.2 0-12.5 0-18.7 0-.6 0-1.2.1-1.8.4-.1.1-.9.5-.5.7 4.5 2.2 9.4 3 14.4 2.5 0-.3.1-.6.1-.9-3 1.1-6.1 1.6-9.3 1.4-.6 0-1.5.1-2 .5-.4.4-.4.7.2.7z"/><path d="m-1203.6-1429.1c9.7 0 9.7-15 0-15s-9.7 15 0 15z"/><path d="m-1195.8-1436.6c.4-5.3 11.7-3.5 14.6-3.1-.7-4.9-1.3-9.8-2-14.7-9.1 3-16.8 8.1-23.8 14.6-3.2 3-6.3 6.2-9.2 9.5-2.8 3-5.9 8.2-9.5 10.2 1.3-.3 2.5-.7 3.8-1 1.7 1.5 2.4 1.6 2 .4-.2-.9-.4-1.8-.6-2.8-.4-1.8-.6-3.6-.7-5.5-.3-4 0-7.8.4-11.8.7-7.1.3-13-4.4-18.7-6.2-7.4-16.7 3.2-10.6 10.6 1.8 2.1 0 7.9-.2 10.4-.5 5.4-.2 10.7.6 16.1 1.2 8.2 6.8 20.3 17.3 15.1 3.6-1.8 6.2-5.6 8.8-8.5 3-3.3 5.9-6.6 9-9.8 6.1-6.2 12.7-11.8 21-14.5 8.4-2.7 6.3-13.9-2-14.7-13.3-1.4-28.4 2.5-29.6 18.1-.7 9.7 14.3 9.7 15.1.1z"/><path d="m-1047-1447.1c1.6-2.1 3.1-4.2 4.7-6.3 2.8-3.7-1-9.1-5.2-9-41.1.7-81.5-13.7-122.6-5.9-7.6 1.5-4.4 13 3.2 11.6 39.7-7.6 79.6 7 119.4 6.3-1.7-3-3.5-6-5.2-9-1.6 2.1-3.1 4.2-4.7 6.3-4.6 6.2 5.8 12.2 10.4 6z"/><path d="m-1235.5-1377.9c7.7 0 7.7-12 0-12s-7.7 12 0 12z"/><path d="m-1220.4-1389.6c7.7 0 7.7-12 0-12s-7.7 12 0 12z"/><path d="m-1009.8-1456.9c3.2-4.3 6.5-8.7 9.7-13 1.7-2.2 3.3-4.5 5-6.7 1.3-1.7 3.4-3.7 3.2-6-.3-2.4-2.3-4.5-4.7-4.9-2.5-.4-5.1-.4-7.6-.5-5.4-.3-10.8-.4-16.3-.3-6.2.1-12.3.5-18.4 1-1.8.2.5 4.5 2.2 4.3 9.6-.9 19.3-1.2 29-1 2.4.1 4.8.2 7.1.3 1.1.1 2.3.1 3.4.2.6 0 1.1.1 1.7.1.3 0 .8.3 1.2.2-.4-.5-.8-1.1-1.1-1.6 0 .1-.1.2-.1.3-.1.2-.3.5-.4.7-.2.4-.5.7-.7 1-.8 1.1-1.6 2.1-2.3 3.2-1.4 1.9-2.8 3.8-4.3 5.7-3.3 4.4-6.6 8.8-9.8 13.2-1 1.5 2.1 5.4 3.2 3.8z"/><path d="m-993.3-1487.2c.8 0 1.8-.3 1.3-1.3-.5-.9-2.2-1.3-3.2-1.3-.8 0-1.8.3-1.3 1.3.5.8 2.2 1.3 3.2 1.3z"/><path d="m-1056.7-1414.2c-2.5 3.1-4.9 6.2-7.4 9.3 1.4-.1 2.8-.2 4.2-.3-7.4-9.6-16.1-18-26-24.9-1.1-.7-2.4-.6-3.4.3-.8.7-1.3 2.4-.2 3.1 9.6 6.7 18.2 14.7 25.3 24 1.2 1.5 3.1 1 4.2-.3 2.5-3.1 4.9-6.2 7.4-9.3.7-.9.4-2.4-.7-2.9-1.3-.6-2.6.1-3.4 1z"/><path d="m-1236.8-1356.7c-9.5 5.6-10.7 17.5-15.9 26.3-1.4 2.3-3.1 4.5-5.4 6 1.2-.1 2.5-.2 3.7-.3-2.5-2.1-3-5.4-3-8.5 0-4.1.4-8.3.7-12.4.5-8.9 1-17.9 1.6-26.8.1-2-4.7-1-4.8.6-.5 9.3-1.1 18.5-1.6 27.8-.2 4.2-.7 8.4-.6 12.5.1 3.2.8 6.6 3.4 8.8 1 .8 2.8.4 3.7-.3 9.2-6.2 10.2-17.9 15.7-26.6 1.4-2.3 3.2-4.3 5.6-5.7.8-.4 1.3-1.4.4-2-1.1-.4-2.6.1-3.5.6z"/><path d="m-1237.7-1352.4c.7 4-1.6 8.5-5.4 10.1-.7.3.8 1.4 1 1.6.5.4 1.1.8 1.6 1 .3.1.9.5 1.2.3 4.1-1.7 6.6-6.2 5.8-10.6-.1-.3-.5-.7-.8-.9-.5-.4-1-.8-1.6-1.1-.1-.2-1.9-1.1-1.8-.4z"/><path d="m-1259.5-1314.2c.6 0 1.8-.1 1.1-.9-.6-.8-2.4-1-3.3-1-.6 0-1.8.1-1.1.9.7.7 2.4 1 3.3 1z"/><path d="m-1262.4-1308.2c0-3.4.3-6.9.8-10.3.2-1.3-2.7-.9-2.9.3-.5 3.4-.8 6.8-.8 10.3 0 .7.7.9 1.3.8.5 0 1.6-.4 1.6-1.1z"/><path d="m-1249.9-1477.7c17 5.3 34.5 8.9 52.2 10.8.7.1 1.5-.1 2-.5.4-.4.4-.9-.3-1-17.5-1.9-34.8-5.4-51.6-10.6-.7-.2-1.5-.1-2 .3-.3.1-1 .7-.3 1z"/><path d="m-1272.1-1461.4c1.9 1 3.5 2.4 4.9 4-.5-.7-1.1-1.3-1.6-2 5.4 6.6 5.9 15.5 6.8 23.7.9 9.1 1.6 18.2.1 27.3.1-.9.3-1.7.4-2.6-.6 3.4-1.4 6.7-2 10.1s-.9 6.6 0 10c.7 1.5 1.8 2.4 3.4 2.6 2.1.9 4.4 1.3 6.7 1.2 3.3.1 6.6-.2 9.8-.7 3.8-.4 7.6-1.2 11.4-2.3 2.5-.8 5.1-1.6 7.6-2.4 4.3-1.5 8.3-3.3 12.2-5.6 1.4-1 2.7-2 4.1-2.9 1.9-1.3 2.9-3.1 2.8-5.4-.8-2.9-.7-5.8-.2-8.7-.1.9-.3 1.7-.4 2.6.9-5.3 2.3-10.5 2.8-15.9.4-4.7.3-9.4 0-14.1-.3-4.8-.8-9.6-1.4-14.3-.5-4.4-1.2-8.9-3-13-1.2-2.6-2.9-4.8-4.7-7-1.4-1.6-3-3-4.9-4s-3.9-1.5-6-1.5c-2.9-.4-5.8-.4-8.7 0-3.7.3-7.4.9-11 1.9-3.9.8-7.8 1.9-11.5 3.2-2.2.9-4.5 1.8-6.7 2.7-3.5 1.5-6.7 3.5-9.6 5.9-.8.9-1.6 1.9-2.4 2.8-1 1.7-.6 3.3 1.1 4.4z"/><path d="m-1272.3-1464.2v89.5 25c-.6 2.6-.1 5 1.3 7.1.9 2.5 2.7 4.3 5.2 5.6 2.7 1.6 5.7 2.6 8.8 2.9 3.5.8 7.1 1 10.7.5 2.6-.5 5.2-1 7.9-1.4 5-1.3 9.7-3.4 14-6.3 1.7-1.4 3.4-2.9 5.1-4.3 2.8-2.7 4.6-5.9 5.4-9.7 0-29.8 0-59.7 0-89.5 0-8.3 0-16.7 0-25 .6-2.6.1-5-1.3-7.1-.9-2.5-2.7-4.3-5.2-5.6-2.7-1.6-5.7-2.6-8.8-2.9-3.5-.8-7.1-1-10.7-.5-2.6.5-5.2 1-7.9 1.4-5 1.3-9.7 3.4-14 6.3-1.7 1.4-3.4 2.9-5.1 4.3-2.8 2.7-4.6 5.9-5.4 9.7z"/><path d="m-1253.4-1467.6v90.2 25.4c0 1.9.6 3.4 2.2 4.6s4.1 1.7 6 1.5c2.3-.2 4.7-.9 6.5-2.4 1.4-1.2 3-2.9 3-4.8 0-30.1 0-60.1 0-90.2 0-8.5 0-16.9 0-25.4 0-1.9-.6-3.4-2.2-4.6s-4.1-1.7-6-1.5c-2.3.2-4.7.9-6.5 2.4-1.4 1.2-3 2.9-3 4.8z"/><path d="m-1245.4-1476.7h91.9s61.3 0 91.9 0h51.4c2.3 0 4.7-.4 6.8-1.3 1.5-.7 3.8-1.9 4.6-3.4.6-1.1 1.1-2.6 0-3.7-1.2-1.2-3.1-1.6-4.7-1.6-30.6 0-61.3 0-91.9 0s-61.3 0-91.9 0c-17.1 0-34.3 0-51.4 0-2.3 0-4.7.4-6.8 1.3-1.5.7-3.8 1.9-4.6 3.4-.7 1.1-1.1 2.6 0 3.7 1.2 1.2 3.1 1.6 4.7 1.6z"/><path d="m-1214.3-1440c22.8-1.3 45.5-2.5 68.3-3.5s45.5-2 68.3-2.9c12.8-.5 25.6-.9 38.4-1.4 7.7-.3 15.5-1.7 22.7-4.7 3.3-1.2 6.4-2.9 9.2-5 2.5-1.5 4.7-3.4 6.5-5.7.7-1.3 1.4-2.6 2.1-3.9.8-2.7.1-5-1.9-6.9-1.3-.8-2.5-1.6-3.8-2.3-3.8-1.4-7.6-2-11.7-1.9-22.8.8-45.6 1.6-68.3 2.6-22.8 1-45.5 2-68.3 3.2-12.8.7-25.6 1.3-38.4 2.1-3.8 0-7.5.4-11.2 1.3-4 .6-7.8 1.8-11.5 3.3-3.3 1.2-6.4 2.9-9.2 5-2.5 1.5-4.7 3.4-6.5 5.7-.7 1.3-1.4 2.6-2.1 3.9-.8 2.7-.1 5 1.9 6.9 1.3.8 2.5 1.6 3.8 2.3 3.8 1.4 7.6 2.1 11.7 1.9z"/><path d="m-1201.2-1435.6c17.8-.6 35.5-.9 53.3-1.1-2.1 0-4.2 0-6.3 0 21.3-.2 42.5 0 63.8.5 7.2.2 14.3-.8 21.3-2.6 3.8-.9 7.4-2.2 10.9-3.8 3.1-1.2 6-2.7 8.8-4.5 1.3-1.1 2.7-2.1 4-3.2 2-1.6 2.8-3.6 2.6-6-.6-.8-1.2-1.5-1.7-2.3-2.7-1.5-5.5-2.3-8.6-2.3-32.5-.7-65-.7-97.4 0-8.6.2-17.3.4-25.9.7-3.8.2-7.4.8-11.1 1.7-3.9.7-7.8 1.8-11.5 3.3-3.3 1.1-6.4 2.6-9.4 4.4-2.5 1.2-4.7 2.8-6.7 4.7-.8 1-1.5 2.1-2.3 3.1-.9 2.1-.5 3.8 1.4 5.2 1.2.5 2.4 1 3.5 1.5 3.7.8 7.5 1 11.3.7z"/><path d="m-1273.3-1491.4c.5 3.2.5 6.5.6 9.7 0-.5 0-.9 0-1.4.1 3.4.3 6.8 0 10.2-.1 1.6-.6 3.3-.6 4.9-.1 2.1.1 4.2.3 6.2.1 1.5 2.3 2.4 3.5 2.7 2 .5 4.6.3 6.5-.2 3.2-1 7.8-3.1 7.4-7.1-.1-1.1-.2-2.3-.2-3.4v1.4c0-2.2.5-4.4.7-6.6s.1-4.4.1-6.5c0-4.8 0-9.7-.7-14.5-.2-1.5-2.3-2.4-3.5-2.7-2-.5-4.6-.3-6.5.2-3.3.9-8.2 3.1-7.6 7.1z"/><path d="m-1273.4-1459.9c-.2 3.7.1 7.3.1 11 0 3.6-.7 7-.5 10.6.4 7.5.5 15 .5 22.5 0 1.1 2.6 1.3 3.1 1.3 2 .1 4.4-.3 6.4-.8 2-.6 4.2-1.2 5.9-2.5 1-.7 2-1.4 2-2.7 0-7.5-.1-15-.5-22.5-.2-3.6.5-7 .5-10.6.1-3.7-.3-7.3-.1-11 .1-1.1-2.7-1.3-3.1-1.3-2-.1-4.4.3-6.4.8-2 .6-4.2 1.2-5.9 2.5-1 .7-1.9 1.4-2 2.7z"/><path d="m-1273.5-1417.1v29.2c0 1.8.5 3.1 2 4.1 1.6 1.1 4 1.4 5.9 1.2 2.3-.3 4.7-.9 6.5-2.4 1.3-1 3.1-2.6 3.1-4.5 0-9.7 0-19.4 0-29.2 0-1.8-.5-3.1-2-4.1-1.6-1.1-4-1.4-5.9-1.2-2.3.3-4.7.9-6.5 2.4-1.3 1.1-3.1 2.7-3.1 4.5z"/><path d="m-1274.2-1383.4v38.6c0 1.7.5 3 2 4 1.6 1 4 1.3 5.9 1.1 2.3-.3 4.7-.9 6.6-2.3 1.3-1 3.1-2.5 3.1-4.3 0-12.9 0-25.7 0-38.6 0-1.7-.5-3-2-4-1.6-1-4-1.3-5.9-1.1-2.3.3-4.7.9-6.6 2.3-1.3.9-3.1 2.5-3.1 4.3z"/><path d="m-1273.9-1342v31.5c0 1.9.6 3.5 2.2 4.7s4.1 1.7 6 1.5c2.3-.2 4.7-.9 6.5-2.4 1.4-1.2 3-2.9 3-4.9 0-10.5 0-21 0-31.5 0-1.9-.6-3.5-2.2-4.7s-4.1-1.7-6-1.5c-2.3.2-4.7.9-6.5 2.4-1.5 1.2-3 2.9-3 4.9z"/><path d="m-1254.6-1312.4c0-.1 0-.2 0-.4 0 .3-.1.6-.1.9.1-.5.2-1 .5-1.5.1-.2.3-.4.4-.6.3-.6-.4.6 0 0 .9-1.1 1.6-2.3 2.2-3.5 1-2.3 1.6-4.7 2.4-7.1.9-2.4 1.9-4.8 2.6-7.2.7-2.5.9-5.1 2.1-7.5.5-1.1-.6-1.8-1.5-2.1-1.6-.5-4-.3-5.6 0-2.3.4-4.6 1-6.6 2.1-1.3.7-2.8 1.5-3.5 2.9-1.1 2.3-1.3 5-2.1 7.5-.8 2.6-1.9 5.1-2.8 7.7-.8 2.3-1.4 4.8-2.4 7-.1.2-.2.5-.4.7-.1.1-.7 1.1-.3.5.3-.5-.1.2-.2.3-.3.4-.6.8-.9 1.3-.8 1.2-1.2 2.2-1.2 3.7-.1 3.1 17.2.8 17.4-4.7z"/><path d="m-1249.1-1336.3c-.1.1-.1.1-.2.2.4-.5.7-.9 1.1-1.4-.3.3-.6.6-.9.9.5-.4 1-.8 1.6-1.2-1.4 1.1-2.9 2-4.2 3.2s-2.4 2.6-3.3 4.1c-1.7 2.6-2.6 5.6-3.8 8.5.2-.5.4-.9.6-1.4-.4.9-.7 1.9-1.3 2.7.4-.5.7-.9 1.1-1.4-.1.1-.2.3-.3.4.5-.4 1-.8 1.6-1.2-.1.1-.1.1-.2.2-1.3 1-2.9 2.2-3.2 4-.2 1.5.6 2.9 1.9 3.5 1.7.9 3.9 1.1 5.8.9 2.2-.3 4.7-.9 6.6-2.3 1.4-1.1 2.4-1.9 3.4-3.4.3-.5.5-1 .7-1.6.6-1.6 1.2-3.1 1.9-4.7-.2.5-.4.9-.6 1.4.8-2.1 1.8-4.2 3.2-6-.4.5-.7.9-1.1 1.4.5-.7 1.1-1.3 1.8-1.8-.5.4-1 .8-1.6 1.2.6-.5 1.2-.9 1.8-1.3.7-.5 1.5-1.1 2.1-1.7.7-.6 1.2-1.4 1.8-2.1.9-1.1.7-3-.1-4-1-1.3-3.3-1.8-4.8-1.8-2.3-.1-4.7.3-6.8 1.3-.6.3-1.3.7-1.9 1-1.1.5-2 1.4-2.7 2.4z"/><path d="m-1262.2-1308.4c2.3 0 4.7-.4 6.8-1.3 1.5-.7 3.8-2 4.6-3.6.6-1.2 1-2.7-.1-3.9-1.2-1.2-3.1-1.7-4.7-1.7-2.3 0-4.7.4-6.8 1.3-1.5.7-3.8 2-4.6 3.6-.6 1.2-1 2.7.1 3.9 1.2 1.2 3.1 1.7 4.7 1.7z"/><path d="m-1267.2-1304.7c2.4 0 4.7-.4 6.8-1.3 1.5-.7 3.8-2 4.6-3.6.6-1.2 1-2.8-.1-3.9-1.2-1.2-3.1-1.8-4.8-1.8-2.4 0-4.7.4-6.8 1.3-1.5.7-3.8 2-4.6 3.6-.6 1.2-1 2.8.1 3.9 1.2 1.3 3.1 1.8 4.8 1.8z"/><path d="m-1238.7-1327c.6-1-.6.5.2-.3.1-.1.2-.2.3-.3-.9.8-2 1.4-3.2 1.7-3.9-.2-7.7-.4-11.6-.6-.8 1.3-1.5 2.7-2.3 4-.6 1.1.7 1.7 1.5 1.9 1.5.4 3 .2 4.5 0 3.5-.4 7.9-1.5 10.5-4.1 3-2.8 5.4-6.3 7.9-9.5.2-.2.2-.2 0 0 .2-.2.4-.5.6-.7.3-.4.6-.7.9-1.1.6-.8 1.2-1.6 1.9-2.3 1.3-1.6 2.7-3.2 4.1-4.7-5.5.7-11 1.4-16.5 2.1-.9 3.1-2.4 6-4.3 8.6-.8 1 .9 1.8 1.5 1.9 1.5.4 3 .2 4.5 0 1.9-.2 3.9-.7 5.7-1.4 1.6-.6 3.8-1.3 4.8-2.7 1.4-1.8 2.9-3.6 4.6-5.2 1.6-1.6 3.3-3 4.4-5.1 1-1.9 2.1-3.7 3.4-5.4.1-.1 1.1-1.4.5-.7.3-.3.5-.6.8-.9l1.1-1.1c.5-.4.4-.3-.3.2.6-.4.4-.3-.6.3-4.5.1-9.1.2-13.6.2-1.2 2.5-2.5 4.9-3.8 7.2-.6 1.1.7 1.7 1.5 1.9 1.6.5 3.9.2 5.5-.1 2.3-.4 4.6-1 6.6-2.1 1.3-.7 2.8-1.4 3.5-2.8 1.4-2.4 2.7-4.8 3.8-7.2 1-2-3-2.1-3.9-2.1-3.2.1-6.9.8-9.7 2.4-2.7 1.5-5 3.1-6.9 5.5-1.5 2-3.1 4-4.3 6.2-.5.9-.8 1.8-1.4 2.6.5-.7-.5.5-.7.6-.4.4-.9.8-1.3 1.2-1.8 1.7-3.4 3.5-4.9 5.5 5.5-.7 11-1.4 16.5-2.1 2-2.6 3.4-5.4 4.3-8.6.8-2.8-4.7-2.1-5.9-2-1.9.2-3.9.7-5.7 1.4-1.7.6-3.6 1.4-4.8 2.7-2.9 3-5.5 6.3-8.1 9.6-.7.9-1.3 1.8-2 2.6-.3.4-.5.7-.8 1.1.4-.6-.4.5-.5.7-1.2 1.6-2.5 3-4 4.4 5.5-.7 11-1.4 16.5-2.1.8-1.3 1.5-2.7 2.3-4 1-1.7-2.1-2.1-3-2.1-2.8-.2-6 .5-8.7 1.5-3.3 1.3-6.5 2.9-8.4 6-.6 1.1.7 1.7 1.5 1.9 1.6.5 3.9.2 5.5-.1 2.3-.4 4.6-1 6.6-2.1 1.1-.3 2.6-1.1 3.4-2.4z"/><path d="m-1207.3-1355.7c.1-.6.3-1.1.5-1.7-.2.5-.4 1-.5 1.5 1-2.7 2.6-5.2 3.7-7.9 1.4-3.1 2.3-6.4 3.3-9.6.9-2.9 1.9-5.7 2.7-8.6.9-3.5 1.1-7 .6-10.5-.2-1.6-2.3-2.7-3.6-3.2-2-.6-4.6-.5-6.6.1-3.5 1-7.8 3.5-7.2 7.8.1.6.1 1.2.2 1.8 0-.5-.1-1-.1-1.5.1 3.7-.8 7.2-1.9 10.7-1.1 3.4-2.1 6.9-3.2 10.2.2-.5.4-1 .5-1.5-1.7 4.8-4.6 9-5.9 14-.4 1.6.8 3.2 2 4 1.6 1 4 1.3 5.9 1.1 3.9-.5 8.5-2.5 9.6-6.7z"/><path d="m-1259.5-1489.7c2.2 0 4.7-.6 6.8-1.4 1.5-.6 3.8-1.7 4.7-3.1 2.2-3.3-1.9-4.3-4.5-4.3-2.2 0-4.7.6-6.8 1.4-1.5.6-3.8 1.7-4.7 3.1-2.2 3.3 2 4.3 4.5 4.3z"/><path d="m-1274.5-1506.8 1 218.2 151.8-148.3 56.7 53.2 87.3-87.6.3-35.5z"/><path d="m-529.6-1563.8c9.1-5.6 17.2-13.1 28.3-14.6 5.7-.8 5.8-.6 5.5-7.8-8.1.9-16.1 2.1-24 3.8-84.5 16.9-96.8 62.8-98.5 76.2-.3 1.1-.5 2.4-.3 3.7 5.1-.7 4.3-5.2 6.6-7.4 5.8-.1 6.6-3.7 5.9-8.4 3.5-6.6 7.5-4.1 13.2 2.6-1.6-7-.1-10 1.6-13.6 3.3-7.2 9.4-13.2 10.2-21.5l.7-.7c3 .5 4.6-1.3 5.8-3.9 2.9 0 5.1-1 6.1-3.8l.5-.3c3.3.5 6.8-4.2 9.1-1.2 4.1 5.3-5.2 7.7-4.6 15.4 9.9-10.3 21.1-14.9 32.7-18.2.3 0 .7-.2 1.2-.3z" fill="#2ee199"/><path d="m-437-1345c5.5-5.3 12.6-9.5 13.4-18.7-10.6 2.3-13 9.8-13.4 18.7z" fill="#2ee199"/><path d="m-349.1-1395.7c2.3-5.7 4.2-11.2 5.7-16.6 11.6-42.2-1.6-75.6-22.3-113.8-25-46.1-98.7-58.2-98.7-58.2-2.2-.4-6.1-1.9-6.6 2.5-.6 4.6 3.3 3.4 5.7 3.5 3.4.2 6.9.1 10.3.1.1 3.4-.2 6.9.4 10.3 1.4 9.1-3.3 8.3-9.1 5.9-10.3-4.2-18.2-.7-24 10.7-2.1 1.5-4.2 3.1-6.2 4.6-10.8 5.6 1.6 7.9 1.7 11.9-2.8 1.5-1.6 4-1.5 6.3-.3 1.3-.6 2.6-.9 3.8-3.7.4-7.9-.2-9.9 4.3-1.9.2-3.6.2-4.4-1.9-1.6-3.1-2-6.5-1.7-9.9.1-2 .2-4.4-2.8-4.4-1.6 0-4.7.7-4.7.8.8 6.5-8.3 4.6-8.7 11.3 4.4-1.2 7.5.9 10.2 3.8 4.2 1.2 1.6 4.2 1.8 6.5-7.4 3.3 2.6 7-.3 10.4-6.5 1-15-2.1-16.7 8.3-2.5 4.7-3 8.5 4.1 8.7 1.2 3-.1 5.5-1.7 7.9-3.6.5-4.4 4.1-6.7 6.1-.6 2.1-1.3 4.2-1.9 6.3-4 .4-5.8 3.6-7.8 6.4-2.4 1.4-4.3 3.1-4.3 6.2-.1 3.1-8 3.9-2.5 8.6.2 1.2.3 2.4.5 3.6-1.9 1.1-1.9 2.8-1.5 4.6.1 3.4.2 6.8.3 10.2.9 3 3.4 4.5 5.6 6.2-.2 2.2.7 4 2.5 5.3 10.9 8.7 22.6 7.3 34.6 3 4.1 2.5 2.9 12.6 11.8 8.5.2 1.9.5 3.9.7 5.8-4.7 8.2 4.8 11 6.5 16.7.7 2.1 1.4 4.1 2.1 6.2-.1 2.1-.2 4.2-.2 6.2-1.3 2.1-2.5 4.1-3.8 6.2-1.4 4.5 1.5 7.3 3.9 10.4.3 3-1.1 6.3 1.7 8.8 2.1 5 2.4 13 8.5 13.1 7.4.1 16.1-1.5 18.8-11.1 3.1-4 9.1-6.1 7.8-12.8 1.4-1.6 2.9-3.1 4.3-4.7 4.2 0 6.5-2.4 8.1-5.9.3-3.4 3.3-6.7.5-10.2 1-2.6 2.4-5.2 1.4-8.2l6.3-10.5c4.7-3 9.3-6 12.9-10.3 3.5-1.6 5.4-4.6 6.7-8.1 1.4-2.9 6.2-7.1-2.5-6-3.7.5-7.3.5-10.1-2.6 0-1.6-.3-3.3 1.6-4.2 6.6-2.1 14-2.5 19.2-7.9 4.5.2 7.3-1.7 7.9-6.4 2.5-2.5 5.2-4.9 2.3-8.8-.9-1.9-1.8-3.8-2.7-5.7 7.4-2.7 13.9-1.6 19.5 4.1-.3 5.8 8 4.9 8 10.4-.5 3-.8 5.9 1.4 8.5v15.1c3.2-3.2 5.2-6.6 4.8-10.8 1.8-4.1 5-7.8 4-12.8 2.4-2.4 2.6-7.2 7.8-7.3 1 4.5 1.9 9 2.9 13.5v20.7c-.9 4-1.7 7.9-2.6 11.9-2.1 4.6-4.2 9.2-2.6 15.9 3.4-3.2 5.1-5.7 4.7-9.3-.2-.6-.2-1.1-.1-1.7z" fill="#2ee199"/><path d="m-520.7-1555.1c-4.3 0-6.9 0-9.5 0 2.8 2 5.4 2.1 9.5 0z" fill="#2ee199"/><path d="m-579-1331.9c-2.1-6.9-4.1-13.8-6.2-20.8 4.5-2.7 6-6 2.1-10.4.1-2.7.1-5.4.2-8.2 2.8-3.5 2.7-7 .1-10.6-.2-4.4-2.7-6.7-6.7-7.7-1.7-5-7.8-3.3-10.5-6.7-3.1-3.2-8.6-3.5-10.3-8.3-.1-3.9-2.1-6.5-5.2-8.5-5-6.1-9.2-13-16.9-16.2l-.5-3c.2-4 1.6-8.2-1.9-11.6 0 0-.4 3.5-.4 9.5.1 18.7 5 61.7 42.9 97.6 1.2 1.3 2.6 2.5 4 3.6 2.2 1.9 4.5 3.9 6.9 5.7 2.8 3.2 6.4 5.5 10.3 7.4-.7-5-3.6-8.8-7.9-11.8z" fill="#2ee199"/><circle cx="-49" cy="-1155.1" fill="#eaeaea" r="147.5"/><path d="m-82.1-1209.9c2.5 1.5 5.4 2.9 8 4.8 19.6 13.7 39.2 27.4 58.7 41.3 9.8 7 10 10.9.6 17.7-19.7 14.2-39.7 28.1-59.6 42.1-3.8 2.7-7.8 5.2-12.5 2.7-4.5-2.4-3.3-7.2-3.3-11.2-.1-28.5 0-56.9-.1-85.4.1-5.7.3-10.9 8.2-12z"/><path d="m50.3-1520.2c8.1-20.6 9.2-43.2 3-65.5-7.4-26.7-24.9-51.1-49.1-68.6-26.3-19-59.1-29.1-94.9-29.1-45 0-82.9 12.9-109.6 37.4-24.1 22-37.4 51.7-37.4 83.7 0 15.5 3.2 30.6 9.4 44.9 6.4 14.7 15.9 27.9 28 39 6.5 6 13.8 11.3 21.6 15.9 24.1 14.2 54.1 21.6 88 21.6 16.7 0 34.1-2.2 49.6-6.3 14.7 15.1 34.6 23.6 55.5 23.6h20.9l-14.8-14.8c-8-8-12.9-18.3-14.3-29.6 20.7-13.7 36-31.6 44.1-52.2z" fill="#1d1d1b"/><circle cx="-437.5" cy="-393.6" r="55.8"/><circle cx="-616.7" cy="-303.6" r="55.8"/><circle cx="-437.5" cy="-209.9" r="55.8"/><path d="m-578-318 140.5-85.5" stroke="#000" stroke-miterlimit="10" stroke-width="2"/><path d="m-574.4-282.9 127.9 73" stroke="#000" stroke-miterlimit="10" stroke-width="2"/></svg>